<?xml version="1.0" standalone="no"?>
<!DOCTYPE svg PUBLIC "-//W3C//DTD SVG 1.1//EN" "http://www.w3.org/Graphics/SVG/1.1/DTD/svg11.dtd" >
<svg xmlns="http://www.w3.org/2000/svg">
<metadata></metadata>
<defs>
<font id="foundation_sans_cdbold_italic" horiz-adv-x="903" >
<font-face units-per-em="2048" ascent="1690" descent="-358" />
<missing-glyph horiz-adv-x="477" />
<glyph unicode="&#xfb01;" horiz-adv-x="927" d="M20 0l183 852h-80l35 168h80l20 98q17 85 34 125t46 68q67 67 190 67q53 0 121 -12l-39 -176q-28 4 -39 4q-36 0 -55 -23t-31 -81l-14 -70h104l-36 -168h-103l-182 -852h-234zM489 0l218 1020h231l-217 -1020h-232zM735 1155l45 211h232l-45 -211h-232z" />
<glyph unicode="&#xfb02;" horiz-adv-x="927" d="M20 0l183 852h-80l35 168h80l20 98q17 85 34 125t46 68q67 67 190 67q53 0 121 -12l-39 -176q-28 4 -39 4q-36 0 -55 -23t-31 -81l-14 -70h104l-36 -168h-103l-182 -852h-234zM489 0l291 1366h230l-289 -1366h-232z" />
<glyph unicode="&#xfb03;" horiz-adv-x="1400" d="M20 0l183 852h-80l35 168h80l20 98q17 85 34 125t46 68q67 67 190 67q53 0 121 -12l-39 -176q-28 4 -39 4q-36 0 -55 -23t-31 -81l-14 -70h240l22 98q21 90 36.5 128t43.5 65q67 67 188 67q55 0 121 -12l-37 -176q-32 4 -41 4q-35 0 -53 -22.5t-30 -81.5l-15 -70h103 l-35 -168h-105l-182 -852h-233l182 852h-240l-182 -852h-234zM963 0l217 1020h233l-219 -1020h-231zM1208 1155l45 211h232l-45 -211h-232z" />
<glyph unicode="&#xfb04;" horiz-adv-x="1400" d="M20 0l183 852h-80l35 168h80l20 98q17 85 34 125t46 68q67 67 190 67q53 0 121 -12l-39 -176q-28 4 -39 4q-36 0 -55 -23t-31 -81l-14 -70h240l22 98q21 90 36.5 128t43.5 65q67 67 188 67q55 0 121 -12l-37 -176q-32 4 -41 4q-35 0 -53 -22.5t-30 -81.5l-15 -70h103 l-35 -168h-105l-182 -852h-233l182 852h-240l-182 -852h-234zM963 0l290 1366h232l-291 -1366h-231z" />
<glyph horiz-adv-x="2048" />
<glyph horiz-adv-x="2048" />
<glyph unicode="&#xd;" horiz-adv-x="2048" />
<glyph unicode=" "  horiz-adv-x="477" />
<glyph unicode="&#x09;" horiz-adv-x="477" />
<glyph unicode="&#xa0;" horiz-adv-x="477" />
<glyph unicode="!" horiz-adv-x="507" d="M31 0l51 238h244l-52 -238h-243zM156 358l71 637l78 371h248l-90 -426l-158 -582h-149z" />
<glyph unicode="&#x22;" horiz-adv-x="757" d="M190 817l80 549h193l-139 -549h-134zM541 817l82 549h192l-141 -549h-133z" />
<glyph unicode="#" horiz-adv-x="976" d="M66 0l131 418h-131l45 145h131l82 264h-131l45 146h131l123 393h161l-123 -393h170l123 393h166l-123 -393h127l-45 -146h-127l-82 -264h127l-45 -145h-127l-131 -418h-168l131 418h-168l-131 -418h-161zM403 563h168l84 264h-170z" />
<glyph unicode="$" d="M35 313q0 64 8 129h219q-12 -68 -12 -116q0 -73 47 -116.5t127 -43.5q71 0 116.5 48.5t45.5 123.5q0 81 -64 145q-31 31 -153 129q-102 84 -149.5 169t-47.5 184q0 161 102 255.5t275 94.5h29l24 112h88l-24 -112q65 -17 102 -37.5t68 -54.5q69 -81 69 -207q0 -24 -4 -94 h-207q4 58 4 79q0 140 -141 140q-73 0 -118.5 -42.5t-45.5 -111.5t53 -131q22 -25 41 -40.5t111 -84.5q99 -75 155 -175.5t56 -203.5q0 -113 -51 -199t-142 -126q-84 -40 -233 -37l-29 -140h-88l29 140q-81 27 -113.5 44t-62.5 52q-84 94 -84 227z" />
<glyph unicode="%" horiz-adv-x="1515" d="M295 983q0 61 23 153t51 142q61 104 194 104q97 0 147 -48t50 -142q0 -75 -21.5 -165t-52.5 -142q-62 -107 -197 -107q-194 0 -194 205zM360 -14l756 1394h137l-755 -1394h-138zM432 965q0 -86 64 -86q48 0 71 57q20 49 39 137.5t19 132.5q0 35 -17.5 55.5t-48.5 20.5 q-32 0 -51.5 -21.5t-36.5 -78.5q-39 -144 -39 -217zM827 190q0 61 23 153t51 142q61 105 195 105q97 0 146.5 -48.5t49.5 -142.5q0 -75 -21 -165t-52 -142q-32 -55 -79 -80.5t-118 -25.5q-195 0 -195 204zM965 172q0 -86 63 -86q49 0 72 57q20 49 38.5 137.5t18.5 133.5 q0 35 -17 55t-48 20q-32 0 -51.5 -21.5t-36.5 -78.5q-39 -144 -39 -217z" />
<glyph unicode="&#x26;" horiz-adv-x="1095" d="M49 356q0 145 70 251t231 206q-74 148 -74 262q0 133 84.5 215t221.5 82q130 0 210 -74t80 -196q0 -103 -57.5 -184.5t-189.5 -167.5l141 -297q24 62 35 100.5t33 142.5h194q-23 -156 -54.5 -242.5t-109.5 -211.5l115 -242h-254l-39 78q-75 -57 -132.5 -79t-135.5 -22 q-163 0 -266 106t-103 273zM270 397q0 -84 56 -145.5t131 -61.5q40 0 71.5 13.5t77.5 48.5l-180 373q-80 -55 -118 -109.5t-38 -118.5zM487 1098q0 -36 11 -71.5t41 -98.5q35 23 43 30q90 69 90 156q0 39 -24.5 63.5t-63.5 24.5q-45 0 -71 -27.5t-26 -76.5z" />
<glyph unicode="'" horiz-adv-x="405" d="M184 817l84 549h203l-147 -549h-140z" />
<glyph unicode="(" horiz-adv-x="589" d="M76 381q0 156 42.5 324t117.5 311q51 97 107.5 170.5t160.5 179.5h158q-119 -152 -175 -263.5t-108 -303.5q-88 -325 -88 -592q0 -145 14.5 -221.5t65.5 -204.5h-138q-84 156 -120.5 295.5t-36.5 304.5z" />
<glyph unicode=")" horiz-adv-x="589" d="M-47 -219q118 149 174 260.5t109 302.5q88 325 88 588q0 147 -14.5 225t-65.5 209h137q85 -158 121.5 -298.5t36.5 -305.5q0 -156 -42.5 -324t-117.5 -311q-51 -96 -108 -169.5t-160 -176.5h-158z" />
<glyph unicode="*" horiz-adv-x="757" d="M213 1163l47 113l191 -98l41 194l120 -18l-37 -176l207 47l27 -121l-211 -45l109 -189l-105 -61l-110 197l-160 -170l-88 84l153 157z" />
<glyph unicode="+" d="M111 631l34 164h271l63 303h180l-65 -303h272l-35 -164h-272l-67 -318h-179l68 318h-270z" />
<glyph unicode="," horiz-adv-x="438" d="M-68 -262l17 76q76 7 117.5 51.5t56.5 134.5h-135l51 240h244l-45 -217q-29 -145 -100.5 -212t-205.5 -73z" />
<glyph unicode="-" horiz-adv-x="382" d="M-14 442l43 203h383l-43 -203h-383z" />
<glyph unicode="." horiz-adv-x="438" d="M-12 0l51 238h244l-52 -238h-243z" />
<glyph unicode="/" horiz-adv-x="505" d="M-45 -219l455 1585h149l-457 -1585h-147z" />
<glyph unicode="0" d="M51 272q4 89 60.5 370.5t103.5 451.5q40 145 128 212.5t237 67.5q159 0 248.5 -72t89.5 -200q0 -69 -41 -292.5t-97 -459.5q-34 -141 -71 -213t-97 -110q-82 -54 -219 -54q-170 0 -259.5 78.5t-82.5 220.5zM289 262q-3 -51 23 -81.5t73 -30.5q64 0 97 49t59 186l41 190 q98 439 98 519q0 46 -26 73t-72 27q-61 0 -93 -49.5t-63 -190.5q-100 -469 -117 -555t-20 -137z" />
<glyph unicode="1" d="M203 973l33 160q174 12 272.5 67.5t142.5 165.5h174l-288 -1366h-244l213 997q-174 -24 -303 -24z" />
<glyph unicode="2" d="M2 0q20 162 69.5 276t146 220.5t276.5 248.5q186 145 186 293q0 69 -31.5 106.5t-89.5 37.5q-75 0 -111 -55t-49 -193h-239q22 226 118 332t281 106q177 0 269 -84.5t92 -247.5q0 -147 -65.5 -251t-252.5 -254q-152 -122 -213.5 -187t-97.5 -141h485l-45 -207h-729z" />
<glyph unicode="3" d="M43 307q0 46 14 152h236q-14 -110 -14 -152q0 -75 30.5 -115t87.5 -40q40 0 72 22t49 62q43 105 43 221q0 85 -50.5 129.5t-145.5 44.5h-35l37 174q50 -4 67 -4q115 0 174.5 68t59.5 200q0 56 -30.5 88.5t-82.5 32.5q-65 0 -101 -50.5t-51 -164.5h-235q17 113 40 173 t68 112q103 112 281 112q169 0 255.5 -80t86.5 -235q0 -160 -74 -266q-29 -39 -64.5 -62t-98.5 -43q79 -44 112 -104.5t33 -161.5q0 -92 -27.5 -178.5t-77.5 -149.5q-91 -119 -296 -119q-186 0 -277 95q-86 89 -86 239z" />
<glyph unicode="4" d="M6 281l45 215l565 870h277l-191 -895h138l-41 -190h-135l-62 -281h-223l59 281h-432zM227 471h252l127 592z" />
<glyph unicode="5" d="M59 322q0 51 11 127h231q-14 -98 -14 -142q0 -155 116 -155q97 0 138 120q22 64 35.5 150.5t13.5 157.5q0 151 -115 151q-41 0 -71 -20t-56 -66h-235l196 705h615l-43 -207h-426l-74 -285q53 29 88 39t80 10q134 0 209.5 -91.5t75.5 -254.5q0 -120 -28.5 -232.5 t-78.5 -195.5q-97 -160 -319 -160q-170 0 -259.5 88t-89.5 261z" />
<glyph unicode="6" d="M70 268q0 70 11 143t48 255q64 308 98 419q43 148 135 217.5t244 69.5q151 0 232.5 -67.5t81.5 -192.5q0 -8 -5 -86h-233q6 53 6 64q0 49 -24 75.5t-68 26.5q-46 0 -74.5 -26.5t-48.5 -88.5q-19 -66 -57 -237q50 30 87.5 41.5t82.5 11.5q114 0 181 -70t67 -190 q0 -96 -27.5 -230t-65.5 -225q-84 -205 -338 -205q-169 0 -251 73t-82 222zM303 268q-3 -54 23 -86t75 -32q46 0 75 29t54 100q21 63 42.5 178.5t21.5 165.5q0 44 -25.5 72t-66.5 28q-47 0 -80.5 -34t-56.5 -107q-19 -59 -39 -160t-23 -154z" />
<glyph unicode="7" d="M164 0q64 287 207 585.5t329 538.5h-493l45 207h747l-34 -168q-180 -226 -320 -530t-215 -633h-266z" />
<glyph unicode="8" d="M47 309q0 104 29 194t82 152q28 33 62.5 52t90.5 32q-64 51 -89 103t-25 137q0 178 101.5 285.5t268.5 107.5q143 0 232 -74q51 -41 73.5 -97.5t22.5 -141.5q0 -165 -80 -277q-27 -36 -58.5 -57t-90.5 -43q75 -47 103 -102t28 -152q0 -211 -109 -338q-99 -117 -299 -117 q-164 0 -253 87.5t-89 248.5zM285 279q0 -59 28.5 -93t77.5 -34q95 0 135 116q18 54 30.5 122t12.5 112q0 56 -29.5 88.5t-80.5 32.5q-54 0 -86.5 -37t-57.5 -127q-30 -117 -30 -180zM416 911q-3 -49 25 -81.5t73 -32.5q35 0 64.5 20t44.5 55q20 44 32.5 104.5t12.5 110.5 q0 49 -27.5 78t-73.5 29q-67 0 -98 -66q-46 -88 -53 -217z" />
<glyph unicode="9" d="M51 233q0 20 4 82h232q-4 -46 -4 -59q0 -51 24 -78.5t68 -27.5q49 0 77.5 29t52 101t54.5 224q-58 -33 -92 -44t-80 -11q-113 0 -182.5 71.5t-69.5 186.5q0 108 36.5 260t82.5 239q46 86 121.5 126t195.5 40q158 0 241 -69t83 -201q0 -117 -40 -349.5t-99 -455.5 q-46 -173 -135.5 -248.5t-249.5 -75.5q-154 0 -237 67.5t-83 192.5zM379 733q-3 -52 22.5 -84.5t69.5 -32.5q49 0 80.5 33.5t56.5 110.5q22 69 40 173.5t18 158.5q0 47 -26 74.5t-69 27.5q-90 0 -135 -139q-15 -52 -34.5 -160.5t-22.5 -161.5z" />
<glyph unicode=":" horiz-adv-x="438" d="M-12 0l51 238h244l-52 -238h-243zM152 766l49 238h243l-51 -238h-241z" />
<glyph unicode=";" horiz-adv-x="438" d="M-68 -262l17 76q76 7 117.5 51.5t56.5 134.5h-135l51 240h244l-45 -217q-29 -145 -100.5 -212t-205.5 -73zM152 766l49 238h243l-49 -238h-243z" />
<glyph unicode="&#x3c;" horiz-adv-x="1024" d="M68 580v206l886 447v-244l-626 -307l626 -305v-244z" />
<glyph unicode="=" d="M104 440l35 164h654l-35 -164h-654zM186 821l35 164h653l-34 -164h-654z" />
<glyph unicode="&#x3e;" horiz-adv-x="1024" d="M123 133v244l627 305l-627 307v244l887 -447v-206z" />
<glyph unicode="?" horiz-adv-x="813" d="M150 0l51 238h243l-51 -238h-243zM174 1047q12 180 98.5 267t253.5 87q158 0 250 -92t92 -250q0 -114 -45 -199q-21 -42 -49.5 -74.5t-107.5 -101.5q-124 -113 -155 -162t-48 -155h-213q21 122 44 184.5t65 117t145 154.5q127 121 127 262q0 63 -28 97.5t-79 34.5 q-60 0 -87 -35.5t-44 -134.5h-219z" />
<glyph unicode="@" horiz-adv-x="1226" d="M100 621q0 155 51.5 297t137.5 246t204 165.5t246 61.5q217 0 353.5 -155t136.5 -400q0 -126 -38.5 -243.5t-107.5 -203.5q-71 -86 -172 -86q-59 0 -102 21.5t-88 74.5q-59 -52 -104.5 -72t-100.5 -20q-147 0 -147 150q0 117 80 348q43 128 98.5 186t134.5 58 q54 0 83.5 -24t41.5 -79l24 82h158l-125 -444q-22 -83 -22 -115q0 -40 21 -64t55 -24q50 0 97.5 64.5t77 168.5t29.5 213q0 205 -107 332t-280 127q-141 0 -261.5 -89t-190.5 -241.5t-70 -330.5q0 -217 102 -367q117 -176 344 -176q92 0 169 25.5t173 87.5l23 -93 q-99 -69 -185.5 -98t-189.5 -29q-244 0 -396.5 179.5t-152.5 466.5zM535 494q0 -64 51 -64q58 0 96 96q32 82 57 178.5t25 133.5q0 65 -53 65q-38 0 -64.5 -38t-58.5 -142q-53 -174 -53 -229z" />
<glyph unicode="A" horiz-adv-x="976" d="M-92 0l581 1366h328l33 -1366h-254l2 346h-285l-133 -346h-272zM385 537h211l14 614z" />
<glyph unicode="B" horiz-adv-x="1011" d="M4 0l291 1366h307q221 0 312.5 -70.5t91.5 -242.5q0 -176 -91 -281q-31 -34 -62.5 -51t-84.5 -27q85 -41 117.5 -99t32.5 -165q0 -135 -53 -240t-144 -149q-81 -41 -320 -41h-397zM297 193h92q88 0 120 5t62 25q43 29 71 96.5t28 143.5q0 87 -48 122.5t-165 35.5h-68z M428 805h74q76 0 107.5 5.5t60.5 23.5q40 27 64 83.5t24 129.5t-42.5 103t-146.5 30h-61z" />
<glyph unicode="C" horiz-adv-x="997" d="M74 322q0 134 54 401t108 395q61 151 161.5 217t266.5 66q380 0 380 -338q0 -61 -16 -168h-250q19 103 19 147q0 82 -34 121t-106 39q-110 0 -157 -100q-30 -64 -47.5 -127.5t-63.5 -280.5q-37 -175 -49 -250.5t-12 -136.5q0 -67 37 -104t104 -37q83 0 129 60.5t86 222.5 h250q-35 -151 -68 -227t-88 -134q-114 -123 -313 -123q-189 0 -290 92.5t-101 264.5z" />
<glyph unicode="D" horiz-adv-x="1073" d="M4 0l291 1366h317q241 0 332 -63q57 -41 89 -110.5t32 -152.5q0 -106 -31 -290t-82 -375q-77 -299 -278 -355q-52 -13 -92 -16.5t-150 -3.5h-428zM297 195h111q101 0 154.5 22t88.5 78q60 95 131 500q23 128 27 155t4 64q0 83 -49 119t-164 36h-96z" />
<glyph unicode="E" horiz-adv-x="892" d="M4 0l291 1366h668l-48 -215h-417l-72 -340h418l-45 -215h-420l-80 -381h459l-47 -215h-707z" />
<glyph unicode="F" horiz-adv-x="851" d="M4 0l291 1366h686l-47 -215h-432l-74 -342h434l-45 -215h-434l-127 -594h-252z" />
<glyph unicode="G" horiz-adv-x="1060" d="M72 305q0 125 39 339t96 394q59 191 165 277t283 86q194 0 294 -80.5t100 -235.5q0 -40 -9 -167h-245q12 79 12 129q0 76 -38.5 117.5t-109.5 41.5q-74 0 -121 -49.5t-81 -163.5q-16 -53 -95 -411q-28 -121 -35.5 -169.5t-7.5 -99.5q0 -72 41.5 -113.5t112.5 -41.5 q91 0 143 78t93 276h-158l45 215h418l-154 -727h-182l31 137q-57 -91 -128.5 -131.5t-172.5 -40.5q-161 0 -248.5 88.5t-87.5 251.5z" />
<glyph unicode="H" horiz-adv-x="1083" d="M4 0l291 1366h252l-111 -528h350l113 528h252l-291 -1366h-252l131 623h-350l-133 -623h-252z" />
<glyph unicode="I" horiz-adv-x="479" d="M4 0l291 1366h252l-291 -1366h-252z" />
<glyph unicode="J" horiz-adv-x="774" d="M-12 227q0 85 28 209h217q-30 -138 -30 -196q0 -38 18.5 -61t50.5 -23q27 0 47 17t37 56l4 16q5 16 13.5 52.5t17.5 77.5l211 991h252l-217 -1018q-46 -215 -125.5 -299t-239.5 -84q-137 0 -210.5 68t-73.5 194z" />
<glyph unicode="K" horiz-adv-x="987" d="M4 0l291 1366h237l-133 -627l418 627h305l-487 -651l233 -715h-272l-154 532l-100 -129l-86 -403h-252z" />
<glyph unicode="L" horiz-adv-x="862" d="M4 0l291 1366h248l-244 -1151h475l-47 -215h-723z" />
<glyph unicode="M" horiz-adv-x="1372" d="M4 0l291 1366h369l14 -891l375 891h389l-291 -1366h-244l232 1087l-475 -1087h-162l-27 1087l-231 -1087h-240z" />
<glyph unicode="N" horiz-adv-x="1087" d="M4 0l291 1366h278l144 -858l182 858h258l-291 -1366h-276l-150 870l-184 -870h-252z" />
<glyph unicode="O" horiz-adv-x="1060" d="M70 326q0 93 45.5 320.5t99.5 408.5q34 109 93 189.5t132 115.5q81 41 222 41q397 0 397 -344q0 -109 -33.5 -298t-83.5 -364q-51 -176 -105 -261.5t-143 -127.5q-87 -41 -217 -41q-407 0 -407 361zM324 317q0 -153 145 -153q85 0 129.5 54t87.5 206q49 179 86 368.5 t37 268.5q0 66 -38.5 103.5t-104.5 37.5q-88 0 -141 -66.5t-91 -224.5q-110 -438 -110 -594z" />
<glyph unicode="P" horiz-adv-x="968" d="M4 0l291 1366h379q184 0 269 -83t85 -263q0 -132 -51 -238.5t-137 -152.5q-106 -56 -330 -56q-11 0 -30.5 1t-49 2t-51.5 2l-123 -578h-252zM420 766q74 -4 90 -4q136 0 190 45q31 28 53.5 89t22.5 120q0 88 -43 121.5t-155 33.5h-72z" />
<glyph unicode="Q" horiz-adv-x="1058" d="M70 311q0 109 43 335t98 403q57 185 164 268.5t287 83.5q194 0 294.5 -85t100.5 -249q0 -104 -30.5 -284.5t-78.5 -368.5q-30 -112 -52 -167.5t-67 -125.5l134 -135l-134 -127l-141 149q-64 -26 -107.5 -34.5t-107.5 -8.5q-197 0 -300 88.5t-103 257.5zM322 309 q0 -72 39 -110.5t112 -38.5q24 0 55 10l-51 53l127 123l43 -45q32 88 48.5 149.5t41.5 182.5q56 269 65 322t9 102q0 67 -40.5 106t-111.5 39q-70 0 -113 -41t-77 -141q-22 -61 -96 -383q-51 -230 -51 -328z" />
<glyph unicode="R" horiz-adv-x="1062" d="M4 0l291 1366h387q198 0 289.5 -76t91.5 -241q0 -97 -21 -165t-67 -122q-34 -40 -73.5 -62t-110.5 -41q73 -23 105 -66t32 -118q0 -48 -27 -190q-20 -123 -20 -181q0 -33 6.5 -52.5t27.5 -51.5h-284q-8 66 -8 76q0 65 43 307q8 39 8 70q0 104 -84 125q-60 16 -207 16 l-127 -594h-252zM424 784q53 -4 104 -4q142 0 199 45q35 28 57.5 82.5t22.5 112.5q0 85 -44.5 118t-158.5 33h-98z" />
<glyph unicode="S" horiz-adv-x="954" d="M41 358q0 58 10 129h252q-12 -73 -12 -129q0 -95 40.5 -145.5t117.5 -50.5q73 0 120 52t47 134q0 72 -38 127q-25 36 -46.5 55.5t-117.5 94.5q-124 98 -178 188.5t-54 200.5q0 182 109.5 284.5t302.5 102.5q192 0 285.5 -88t93.5 -271q0 -40 -8 -108h-244q12 52 12 96 q0 85 -37.5 129.5t-109.5 44.5q-69 0 -113.5 -46t-44.5 -118q0 -78 59 -143q22 -23 40 -37.5t104 -79.5q126 -94 181.5 -192.5t55.5 -227.5q0 -190 -139 -307q-107 -88 -285 -88q-201 0 -309 105q-49 47 -71.5 116t-22.5 172z" />
<glyph unicode="T" horiz-adv-x="909" d="M166 1151l45 215h846l-45 -215h-287l-244 -1151h-250l246 1151h-311z" />
<glyph unicode="U" horiz-adv-x="1056" d="M82 293q0 121 29 256l174 817h252l-185 -870q-28 -134 -28 -189q0 -67 41.5 -105t113.5 -38q56 0 93 25t65 81q15 30 25 66.5t32 138.5l191 891h252l-201 -946q-27 -132 -49.5 -194t-61.5 -115q-57 -77 -137.5 -111.5t-204.5 -34.5q-401 0 -401 328z" />
<glyph unicode="V" horiz-adv-x="972" d="M199 1366h262l-17 -1081l428 1081h265l-582 -1366h-330z" />
<glyph unicode="W" horiz-adv-x="1505" d="M205 1366h256l-37 -1122l387 1122h219l-2 -1122l354 1122h267l-510 -1366h-295l-4 893l-312 -893h-305z" />
<glyph unicode="X" horiz-adv-x="989" d="M-43 0l418 692l-207 674h262l109 -467l249 467h287l-409 -688l227 -678h-262l-133 479l-256 -479h-285z" />
<glyph unicode="Y" horiz-adv-x="927" d="M147 1366h275l119 -535l286 535h279l-465 -809l-119 -557h-252l119 557z" />
<glyph unicode="Z" horiz-adv-x="899" d="M-18 0l47 215l614 936h-450l47 215h743l-45 -205l-619 -946h484l-45 -215h-776z" />
<glyph unicode="[" horiz-adv-x="587" d="M-45 -219l336 1585h387l-31 -137h-160l-276 -1307h160l-31 -141h-385z" />
<glyph unicode="\" horiz-adv-x="505" d="M205 1366h151l13 -1585h-148z" />
<glyph unicode="]" horiz-adv-x="587" d="M-63 -219l28 137h160l278 1307h-159l28 141h387l-337 -1585h-385z" />
<glyph unicode="^" horiz-adv-x="1024" d="M100 737l330 635h275l329 -635h-221l-246 469l-245 -469h-222z" />
<glyph unicode="_" horiz-adv-x="1024" d="M0 -129h1024v-150h-1024v150z" />
<glyph unicode="`" horiz-adv-x="1024" d="M334 1425h241l115 -262h-147z" />
<glyph unicode="a" horiz-adv-x="876" d="M14 233q0 96 41.5 176.5t110.5 120.5q45 26 95.5 42.5t195.5 50.5q76 19 108.5 54t32.5 99q0 47 -30.5 76t-80.5 29q-128 0 -143 -166h-227q15 99 40 154.5t74 97.5q93 84 269 84q155 0 242 -62t87 -172q0 -72 -20 -174l-96 -455q-16 -75 -19.5 -104t-3.5 -84h-225l18 86 q-51 -65 -101 -91t-122 -26q-114 0 -180 71t-66 193zM244 242q0 -50 27.5 -78.5t76.5 -28.5q57 0 97 42.5t57 119.5l45 207q-26 -23 -37 -27l-162 -65q-50 -20 -77 -65.5t-27 -104.5z" />
<glyph unicode="b" horiz-adv-x="884" d="M-12 0l291 1366h231l-92 -440q53 69 100.5 97t114.5 28q98 0 155.5 -64.5t57.5 -173.5q0 -134 -46.5 -351t-97.5 -315q-46 -92 -108 -135t-150 -43q-77 0 -123 33t-77 109l-25 -111h-231zM291 266q-3 -47 22 -78.5t64 -31.5q44 0 75.5 34t57.5 111q29 82 59.5 233 t30.5 209q0 46 -24 73.5t-62 27.5q-86 0 -133 -158q-30 -98 -58.5 -231.5t-31.5 -188.5z" />
<glyph unicode="c" horiz-adv-x="806" d="M37 240q0 64 28 216.5t66 301.5q40 152 124.5 222.5t229.5 70.5q156 0 229.5 -65.5t73.5 -203.5q0 -51 -8 -135h-229q14 101 14 133q0 44 -20.5 68t-57.5 24q-52 0 -85.5 -49.5t-55.5 -158.5q-73 -373 -75 -396q-1 -9 -1 -24q0 -44 23 -70.5t63 -26.5q54 0 83 49.5 t55 184.5h229q-24 -127 -46.5 -190.5t-58.5 -114.5q-80 -107 -272 -107q-121 0 -205 49q-104 58 -104 222z" />
<glyph unicode="d" horiz-adv-x="868" d="M31 197q0 83 30 250t70 303q43 146 116.5 223.5t170.5 77.5q93 0 155 -68q27 -30 48 -94l100 477h231l-290 -1366h-211l18 90q-61 -67 -111.5 -94t-115.5 -27q-95 0 -153 62.5t-58 165.5zM274 260q0 -52 22 -79t62 -27q45 0 78 40.5t62 133.5q28 95 51.5 219t23.5 180 q0 104 -81 104q-54 0 -87 -47.5t-65 -175.5q-66 -258 -66 -348z" />
<glyph unicode="e" horiz-adv-x="870" d="M43 262q0 93 36 271.5t79 300.5q77 217 346 217q325 0 325 -271q0 -99 -41 -305h-481q-25 -119 -31 -155t-6 -74q0 -49 28.5 -77t78.5 -28q63 0 97.5 44.5t53.5 150.5h230q-40 -203 -125.5 -285t-257.5 -82q-181 0 -269 88q-63 63 -63 205zM342 639h248q16 101 16 141 q0 47 -27.5 74t-76.5 27q-68 0 -98 -45t-62 -197z" />
<glyph unicode="f" horiz-adv-x="514" d="M20 0l183 852h-80l35 168h80l20 98q17 85 34 125t46 68q67 67 190 67q53 0 121 -12l-39 -176q-28 4 -39 4q-36 0 -55 -23t-31 -81l-14 -70h104l-36 -168h-103l-182 -852h-234z" />
<glyph unicode="g" horiz-adv-x="876" d="M-27 -125h222q6 -35 27.5 -51.5t62.5 -16.5q60 0 94 38t53 126l21 101q-46 -56 -91 -79.5t-106 -23.5q-107 0 -163 65t-56 191q0 100 36 281t83 315q37 107 110.5 168.5t167.5 61.5q80 0 126 -35.5t71 -114.5l24 119h232l-207 -975q-27 -130 -49 -188.5t-58 -98.5 q-91 -104 -282 -104q-151 0 -229.5 54.5t-88.5 166.5zM276 262q0 -112 80 -112q76 0 119 104q30 69 65 238.5t35 242.5q0 48 -22.5 76.5t-60.5 28.5q-87 0 -130 -146q-31 -107 -58.5 -244.5t-27.5 -187.5z" />
<glyph unicode="h" horiz-adv-x="872" d="M-12 0l291 1366h231l-90 -430q56 62 107.5 88.5t115.5 26.5q89 0 142 -51.5t53 -137.5q0 -27 -7 -84t-14 -90l-147 -688h-232l142 664q20 100 20 129q0 35 -21.5 56t-56.5 21q-67 0 -116 -82q-21 -37 -30 -63t-28 -119l-129 -606h-231z" />
<glyph unicode="i" horiz-adv-x="425" d="M-12 0l217 1020h231l-217 -1020h-231zM233 1155l46 211h231l-45 -211h-232z" />
<glyph unicode="j" horiz-adv-x="442" d="M-158 -342l37 170q10 -2 25 -2q40 0 58 24.5t30 94.5q0 12 6 30l211 1045h244l-222 -1040q-37 -170 -47 -194q-5 -12 -14 -28q-63 -108 -213 -108q-39 0 -115 8zM236 1151l45 215h245l-47 -215h-243z" />
<glyph unicode="k" horiz-adv-x="833" d="M-12 0l291 1366h229l-162 -762l318 416h256l-349 -436l129 -584h-239l-78 408l-102 -111l-64 -297h-229z" />
<glyph unicode="l" horiz-adv-x="425" d="M-12 0l291 1366h231l-291 -1366h-231z" />
<glyph unicode="m" horiz-adv-x="1357" d="M-12 0l217 1020h215l-21 -98q115 129 252 129q146 0 193 -146q70 78 133 112t137 34q98 0 152.5 -54.5t54.5 -154.5q0 -59 -14 -127l-152 -715h-233l147 692q12 54 12 105q0 38 -23 60t-61 22q-61 0 -103.5 -61t-70.5 -187l-135 -631h-231l151 711q10 48 10 75 q0 37 -23.5 62.5t-57.5 25.5q-130 0 -175 -208l-143 -666h-231z" />
<glyph unicode="n" horiz-adv-x="872" d="M-12 0l217 1020h219l-21 -96q53 66 109.5 96.5t126.5 30.5q94 0 146.5 -52.5t52.5 -144.5q0 -70 -23 -174l-145 -680h-232l150 707q14 68 14 94q0 34 -22.5 53.5t-59.5 19.5q-52 0 -93 -51t-60 -139l-148 -684h-231z" />
<glyph unicode="o" horiz-adv-x="878" d="M41 258q7 161 55.5 366.5t96.5 284.5q89 142 311 142q193 0 268 -84q26 -29 44 -84t18 -107q0 -143 -51 -361t-105 -304q-46 -75 -116.5 -108.5t-182.5 -33.5q-173 0 -259 73.5t-79 215.5zM272 262q-4 -57 23 -88t80 -31q58 0 93 42.5t54 136.5l37 180q45 178 45 276 q0 43 -28.5 71t-73.5 28t-75 -24t-50 -77q-17 -46 -59.5 -253t-45.5 -261z" />
<glyph unicode="p" horiz-adv-x="868" d="M-84 -342l289 1362h211l-19 -90q59 66 110.5 93.5t117.5 27.5q96 0 151 -59.5t55 -162.5q0 -137 -39 -337t-90 -318q-44 -105 -105 -155t-144 -50q-80 0 -136 47q-25 20 -39.5 44.5t-29.5 70.5l-101 -473h-231zM295 311q0 -125 90 -125q38 0 65.5 30.5t53.5 102.5 q32 91 62 236.5t30 212.5q0 46 -23 74t-61 28q-95 0 -139 -161q-27 -97 -52.5 -227t-25.5 -171z" />
<glyph unicode="q" horiz-adv-x="874" d="M35 233q0 90 37 269t84 315q38 114 107.5 174t162.5 60q154 0 201 -150l24 119h234l-291 -1362h-232l87 410q-46 -54 -90 -76.5t-107 -22.5q-106 0 -161.5 67.5t-55.5 196.5zM270 258q-3 -46 21.5 -77t64.5 -31q44 0 76 34t57 107q26 77 55 226t29 210q0 51 -23.5 82 t-60.5 31q-80 0 -127 -140q-28 -90 -58.5 -234.5t-33.5 -207.5z" />
<glyph unicode="r" horiz-adv-x="606" d="M-12 0l217 1020h237l-39 -180q38 106 95.5 154t146.5 48q25 0 41 -2l-57 -264q-18 2 -41 2q-105 0 -161.5 -46t-78.5 -150l-123 -582h-237z" />
<glyph unicode="s" horiz-adv-x="768" d="M-2 260q0 26 6 90h217q-8 -49 -8 -74q0 -66 32.5 -102.5t90.5 -36.5q54 0 85.5 31t31.5 84q0 48 -33 84q-21 24 -39 39t-100 76q-87 63 -127.5 134.5t-40.5 162.5q0 138 91.5 220.5t246.5 82.5q154 0 235.5 -76t81.5 -219q0 -4 -4 -70h-217q8 60 8 78q0 52 -30.5 82.5 t-82.5 30.5q-50 0 -78 -29t-28 -80q0 -61 45 -100q21 -21 108 -80q191 -133 191 -303q0 -145 -95.5 -230.5t-256.5 -85.5q-160 0 -245 75t-85 216z" />
<glyph unicode="t" horiz-adv-x="495" d="M33 129q0 39 22 147l123 576h-78l37 168h78l57 276h234l-60 -276h111l-35 -168h-112l-117 -551q-14 -66 -14 -96q0 -49 51 -49q8 0 45 6l-37 -176q-69 -17 -109 -17q-95 0 -145.5 41t-50.5 119z" />
<glyph unicode="u" horiz-adv-x="874" d="M33 168q0 63 16 135l154 717h231l-143 -678q-19 -93 -19 -119q0 -35 22.5 -56.5t57.5 -21.5q65 0 103.5 60.5t70.5 212.5l127 602h234l-217 -1020h-215l22 100q-92 -131 -250 -131q-89 0 -141.5 54t-52.5 145z" />
<glyph unicode="v" horiz-adv-x="811" d="M117 1020h235v-825l299 825h246l-434 -1020h-283z" />
<glyph unicode="w" horiz-adv-x="1230" d="M119 1020h231l-14 -797l274 797h201l12 -801l244 801h240l-394 -1020h-264v655l-219 -655h-264z" />
<glyph unicode="x" horiz-adv-x="753" d="M-96 0l342 532l-144 488h234l67 -289l160 289h275l-353 -524l164 -496h-246l-67 301l-168 -301h-264z" />
<glyph unicode="y" horiz-adv-x="817" d="M-2 -336l37 170q14 -2 41 -2q59 0 86 43.5t26 136.5l-2 99l-69 909h241l11 -778l284 778h252l-512 -1159q-42 -92 -65 -123q-66 -84 -201 -84q-44 0 -129 10z" />
<glyph unicode="z" horiz-adv-x="710" d="M-59 0l39 176l452 653h-328l39 191h605l-35 -168l-459 -662h362l-41 -190h-634z" />
<glyph unicode="{" horiz-adv-x="636" d="M-10 494l35 159q71 13 106.5 53t54.5 125l45 216q37 177 129.5 248t284.5 71h98l-36 -170h-43q-71 0 -106 -12.5t-54 -44.5q-15 -26 -37 -127l-37 -170q-29 -130 -68.5 -180t-142.5 -89q60 -35 84.5 -69t24.5 -80q0 -36 -15 -119l-34 -170q-19 -90 -19 -112q0 -40 30 -55 t107 -15h43l-37 -172h-100q-150 0 -220.5 47.5t-70.5 148.5q0 42 17 123l47 215q8 46 8 78q0 83 -94 101z" />
<glyph unicode="|" horiz-adv-x="1024" d="M389 -342v1708h246v-1708h-246z" />
<glyph unicode="}" horiz-adv-x="636" d="M-84 -219l37 170h43q70 0 105.5 12.5t54.5 44.5q15 26 37 127l36 170q29 130 68.5 179.5t142.5 88.5q-60 35 -85 69.5t-25 80.5q0 59 14 119l37 170q18 78 18 112q0 40 -30 55t-107 15h-43l37 172h98q151 0 222 -48t71 -149q0 -50 -16 -122l-47 -216q-11 -45 -11 -77 q0 -83 97 -101l-35 -159q-71 -13 -107 -53.5t-55 -125.5l-47 -215q-38 -178 -129.5 -248.5t-282.5 -70.5h-98z" />
<glyph unicode="~" horiz-adv-x="1366" d="M354 1255q59 134 129 197.5t162 63.5q41 0 90.5 -16t138.5 -56q88 -41 118.5 -51.5t62.5 -10.5q46 0 84.5 32.5t79.5 105.5l120 -101q-60 -137 -129 -198.5t-161 -61.5q-36 0 -77.5 13.5t-142.5 58.5q-90 41 -123.5 52t-66.5 11q-47 0 -83 -30.5t-79 -108.5z" />
<glyph unicode="&#xa1;" horiz-adv-x="507" d="M-25 -221l91 426l157 581h150l-72 -636l-78 -371h-248zM205 905l49 238h244l-52 -238h-241z" />
<glyph unicode="&#xa2;" d="M113 395q0 106 41 311t84 314q26 69 63 109t96 63q73 31 138 31q5 0 45 -4l26 131h84l-28 -133q104 -25 151 -83t47 -161q0 -46 -6 -152h-217q10 74 10 119q0 56 -22.5 82.5t-71.5 26.5q-61 0 -94 -91q-32 -87 -72.5 -279t-40.5 -255q0 -54 19.5 -78t62.5 -24q68 0 94 57 q13 29 20.5 56.5t26.5 119.5h226q-44 -238 -120.5 -326.5t-240.5 -91.5l-26 -133h-89l31 141q-237 43 -237 250z" />
<glyph unicode="&#xa3;" d="M-4 139q110 60 173.5 164t63.5 225q0 16 -4 86h-155l18 91h117q-21 123 -21 206q0 212 112.5 336.5t303.5 124.5q152 0 249 -90t97 -231q0 -41 -6 -97h-233q8 66 8 86q0 64 -36.5 106t-92.5 42q-77 0 -117.5 -67.5t-40.5 -196.5q0 -72 17 -219h237l-18 -91h-219 q3 -164 -52 -266t-188 -180q93 41 182 41q28 0 45.5 -3t95.5 -22q59 -12 95 -12q42 0 74.5 8.5t84.5 32.5l-43 -199q-98 -41 -161 -41q-68 0 -183 37q-116 39 -163 39q-111 0 -203 -80z" />
<glyph unicode="&#xa4;" horiz-adv-x="1366" d="M115 1180l102 102l201 -199q140 101 293 101q80 0 147.5 -23.5t140.5 -77.5l199 199l102 -102l-198 -199q55 -75 78.5 -143t23.5 -146q0 -149 -98 -286l199 -199l-101 -103l-200 199q-138 -100 -291 -100q-149 0 -295 98l-199 -197l-100 101l196 201q-98 134 -98 286 q0 151 100 287zM393 692q0 -130 93.5 -223.5t224.5 -93.5t224 93.5t93 223.5q0 131 -92 225.5t-221 94.5q-135 0 -228.5 -93t-93.5 -227z" />
<glyph unicode="&#xa5;" d="M152 467l18 90h207l-35 197h-131l18 90h97l-95 522h234l59 -674l264 674h238l-256 -522h107l-19 -90h-131l-98 -197h182l-18 -90h-183l-100 -467h-252l100 467h-206z" />
<glyph unicode="&#xa6;" horiz-adv-x="1024" d="M389 313h246v-655h-246v655zM389 659v707h246v-707h-246z" />
<glyph unicode="&#xa7;" horiz-adv-x="948" d="M59 61v33h211q-2 -16 -2 -47q0 -51 30 -82t77 -31q57 0 90 31t33 82q0 38 -19 73.5t-67 88.5q-129 138 -183.5 205.5t-74 114t-19.5 108.5q0 123 84 213q28 30 53.5 45t67.5 25q-35 55 -48 94t-13 84q0 127 88 204.5t233 77.5q135 0 218 -67.5t83 -177.5q0 -16 -4 -66 h-201q2 16 2 43q0 44 -29.5 71t-78.5 27q-46 0 -74.5 -25.5t-28.5 -68.5q0 -49 29 -95t135 -165q120 -133 158.5 -201t38.5 -145q0 -98 -68 -178q-28 -34 -54.5 -51.5t-76.5 -34.5q64 -106 64 -189q0 -114 -88 -202t-244 -88q-146 0 -236 75q-86 69 -86 219zM332 686 q0 -27 14 -60.5t35 -56.5l176 -198q88 50 88 108q0 52 -57 115l-172 199q-46 -29 -65 -53.5t-19 -53.5z" />
<glyph unicode="&#xa8;" horiz-adv-x="1024" d="M360 1186l46 211h212l-43 -211h-215zM735 1186l45 211h215l-45 -211h-215z" />
<glyph unicode="&#xa9;" horiz-adv-x="1366" d="M72 643q0 151 54.5 289.5t146.5 239t218.5 160t264.5 59.5q162 0 299 -89t216 -242.5t79 -336.5q0 -119 -34.5 -232.5t-98 -205.5t-146.5 -162.5t-185.5 -109t-209.5 -38.5q-166 0 -305 88t-219 241.5t-80 338.5zM180 647q0 -159 66 -292t180.5 -209t251.5 -76 q112 0 216 52.5t180 140t121.5 207.5t45.5 249q0 158 -65 291t-177.5 209.5t-246.5 76.5q-154 0 -286 -87.5t-209 -237t-77 -324.5zM430 489q0 74 31 224t61 221q37 88 94 126t152 38q223 0 223 -199q0 -26 -10 -102h-158q11 70 11 92q0 80 -68 80q-57 0 -80 -51 q-26 -53 -60 -212t-34 -223q0 -69 70 -69q43 0 65 30.5t47 124.5h158q-19 -81 -30.5 -114.5t-31.5 -63.5q-68 -108 -213 -108q-109 0 -168 54t-59 152z" />
<glyph unicode="&#xaa;" horiz-adv-x="612" d="M121 692q0 59 26.5 108t71.5 74q48 25 184 56q80 17 80 80q0 24 -16 38.5t-43 14.5q-38 0 -57 -22.5t-25 -75.5h-158q15 117 73 167t175 50q99 0 156 -39t57 -107q0 -48 -12 -106l-62 -266q-3 -13 -5 -22t-3.5 -18t-2 -13.5t-1 -14t-0.5 -13v-17v-19.5h-162l6 26 q-48 -45 -120 -45q-74 0 -118 44.5t-44 119.5zM283 696q0 -25 14.5 -39t40.5 -14q67 0 86 88l22 98q-4 -3 -12.5 -6l-25.5 -9t-31 -11q-55 -20 -74.5 -42.5t-19.5 -64.5z" />
<glyph unicode="&#xab;" horiz-adv-x="776" d="M55 465l35 160l340 249l-45 -206l-195 -144l132 -162l-39 -178zM387 461l37 166l340 245l-43 -194l-197 -154l131 -162l-39 -184z" />
<glyph unicode="&#xac;" horiz-adv-x="1024" d="M14 369v215h887v-584h-239v369h-648z" />
<glyph unicode="&#xad;" horiz-adv-x="382" d="M-14 442l43 203h383l-43 -203h-383z" />
<glyph unicode="&#xae;" horiz-adv-x="1366" d="M72 643q0 151 54.5 289.5t146.5 239t218.5 160t264.5 59.5q162 0 299 -89t216 -242.5t79 -336.5q0 -119 -34.5 -232.5t-98 -205.5t-146.5 -162.5t-185.5 -109t-209.5 -38.5q-166 0 -305 88t-219 241.5t-80 338.5zM180 647q0 -159 66 -292t180.5 -209t251.5 -76 q112 0 216 52.5t180 140t121.5 207.5t45.5 249q0 158 -65 291t-177.5 209.5t-246.5 76.5q-154 0 -286 -87.5t-209 -237t-77 -324.5zM403 301l166 778h226q116 0 169.5 -44.5t53.5 -141.5q0 -174 -133 -217q32 -19 44.5 -41.5t12.5 -59.5q0 -8 -13.5 -98.5t-13.5 -107.5 q0 -8 1 -14.5t4.5 -14.5t5.5 -12t8 -14t8 -13h-184q-6 44 -6 49q0 49 24 176q4 28 4 35q0 43 -28 56.5t-117 13.5l-70 -330h-162zM662 756q33 -2 47 -2q75 0 106 22q17 14 29 43t12 60q0 41 -22 57t-82 16h-47z" />
<glyph unicode="&#xaf;" horiz-adv-x="1024" d="M352 1235l25 121h631l-27 -121h-629z" />
<glyph unicode="&#xb0;" horiz-adv-x="845" d="M246 1094q0 118 84 202t202 84q120 0 203.5 -84.5t83.5 -205.5q0 -115 -85 -199t-202 -84q-118 0 -202 84t-84 203zM362 1094q0 -70 50.5 -120t119.5 -50t119.5 50t50.5 118q0 72 -49.5 122t-120.5 50q-70 0 -120 -50t-50 -120z" />
<glyph unicode="&#xb1;" d="M-6 84l35 164h721l-35 -164h-721zM125 698l35 164h270l64 303h180l-66 -303h273l-35 -164h-273l-67 -315h-178l67 315h-270z" />
<glyph unicode="&#xb2;" horiz-adv-x="612" d="M90 547q15 145 77.5 235.5t231.5 216.5q113 85 113 164q0 39 -19 60.5t-53 21.5q-46 0 -65 -31t-27 -116h-168q12 141 74.5 206.5t185.5 65.5q117 0 178.5 -53.5t61.5 -153.5q0 -86 -42 -148.5t-159 -150.5q-90 -68 -128.5 -105.5t-59.5 -76.5h309l-31 -135h-479z" />
<glyph unicode="&#xb3;" horiz-adv-x="612" d="M113 737q0 29 8 92h166q-8 -61 -8 -92q0 -90 71 -90q43 0 67.5 45.5t24.5 122.5q0 103 -123 103h-28l24 116q18 -2 47 -2q72 0 107 35.5t35 110.5q0 32 -18.5 50.5t-49.5 18.5q-38 0 -58.5 -29t-29.5 -98h-164q9 72 24 110.5t46 69.5q67 70 184 70q112 0 170 -51t58 -148 q0 -171 -136 -215q45 -26 64.5 -63.5t19.5 -97.5q0 -115 -65 -193q-62 -74 -199 -74q-114 0 -175.5 54.5t-61.5 154.5z" />
<glyph unicode="&#xb4;" horiz-adv-x="1024" d="M483 1159l154 262h229l-229 -262h-154z" />
<glyph unicode="&#xb5;" horiz-adv-x="849" d="M-100 -342l290 1362h232l-143 -678q-5 -26 -10.5 -51t-7 -32.5t-2.5 -16.5t-1 -21q0 -34 22.5 -55t57.5 -21q65 0 104.5 61.5t71.5 211.5l127 602h233l-219 -1020h-213l23 100q-44 -63 -108.5 -97t-137.5 -34h-20l-68 -311h-231z" />
<glyph unicode="&#xb6;" d="M139 936q0 120 59.5 229t151.5 160q72 41 246 41h369l-336 -1585h-154l303 1421h-94l-301 -1421h-154l185 866q-69 5 -102.5 15t-67.5 38q-105 82 -105 236z" />
<glyph unicode="&#xb7;" horiz-adv-x="460" d="M51 297l55 260h269l-56 -260h-268z" />
<glyph unicode="&#xb8;" horiz-adv-x="1024" d="M164 -332l26 66q77 -27 113 -27q34 0 56 17t22 45q0 26 -20 42.5t-50 16.5q-20 0 -49 -10l-22 28l108 154h78l-80 -117q38 6 49 6q56 0 93.5 -31.5t37.5 -78.5q0 -65 -56.5 -104.5t-150.5 -39.5q-67 0 -155 33z" />
<glyph unicode="&#xb9;" horiz-adv-x="612" d="M211 1120l22 107q116 8 177.5 40t87.5 99h125l-174 -819h-170l124 588q-120 -15 -192 -15z" />
<glyph unicode="&#xba;" horiz-adv-x="612" d="M139 707q4 97 35 219t62 168q58 88 202 88q211 0 211 -170q0 -87 -32 -217t-66 -183q-31 -46 -76 -66t-117 -20q-112 0 -168 46t-51 135zM301 707q-3 -60 53 -60q32 0 51 22.5t31 75.5q19 93 25 105q26 110 26 162q0 22 -15 35.5t-38 13.5q-49 0 -69 -53q-9 -26 -35 -148 t-29 -153z" />
<glyph unicode="&#xbb;" horiz-adv-x="776" d="M20 188l43 203l197 146l-131 159l37 178l231 -280l-35 -160zM352 184l45 209l197 144l-131 165l37 172l229 -280l-33 -156z" />
<glyph unicode="&#xbc;" horiz-adv-x="1480" d="M211 1120l22 107q116 8 177.5 40t87.5 99h125l-174 -819h-170l124 588q-120 -15 -192 -15zM326 -10l749 1366h137l-749 -1366h-137zM842 166l26 133l357 520h188l-113 -528h89l-27 -125h-88l-35 -166h-158l37 166h-276zM1001 291h144l65 309q-5 -8 -10.5 -17.5 t-12.5 -20.5t-11 -17z" />
<glyph unicode="&#xbd;" horiz-adv-x="1480" d="M211 1120l22 107q116 8 177.5 40t87.5 99h125l-174 -819h-170l124 588q-120 -15 -192 -15zM326 -10l749 1366h137l-749 -1366h-137zM842 0q12 100 42.5 169t91 134t175.5 150q113 85 113 163q0 39 -19 60.5t-53 21.5q-46 0 -65 -31t-27 -116h-166q10 141 72.5 206.5 t185.5 65.5q117 0 178.5 -53.5t61.5 -153.5q0 -86 -42 -148.5t-159 -150.5q-91 -68 -129 -105t-60 -77h310l-31 -135h-479z" />
<glyph unicode="&#xbe;" horiz-adv-x="1480" d="M113 737q0 29 8 92h166q-8 -61 -8 -92q0 -90 71 -90q43 0 67.5 45.5t24.5 122.5q0 103 -123 103h-28l24 116q18 -2 47 -2q72 0 107 35.5t35 110.5q0 32 -18.5 50.5t-49.5 18.5q-38 0 -58.5 -29t-29.5 -98h-164q9 72 24 110.5t46 69.5q67 70 184 70q112 0 170 -51t58 -148 q0 -171 -136 -215q45 -26 64.5 -63.5t19.5 -97.5q0 -115 -65 -193q-62 -74 -199 -74q-114 0 -175.5 54.5t-61.5 154.5zM324 -10l749 1366h137l-749 -1366h-137zM840 166l28 133l357 520h188l-113 -528h89l-27 -125h-88l-35 -166h-158l35 166h-276zM999 291h144l65 309 q-5 -8 -10.5 -17.5t-12.5 -20.5t-11 -17z" />
<glyph unicode="&#xbf;" horiz-adv-x="813" d="M-27 88q0 116 45 201q20 39 48.5 70t109.5 104q124 115 155 163t48 154h213q-21 -123 -43 -184.5t-65 -117t-146 -154.5q-127 -127 -127 -261q0 -63 27.5 -97t78.5 -34q59 0 86.5 36t42.5 132h222q-10 -178 -97.5 -265t-255.5 -87q-158 0 -250 91.5t-92 248.5zM389 905 l51 238h244l-51 -238h-244z" />
<glyph unicode="&#xc0;" horiz-adv-x="976" d="M-92 0l581 1366h328l33 -1366h-254l2 346h-285l-133 -346h-272zM385 537h211l14 614zM410 1726h243l109 -233h-158z" />
<glyph unicode="&#xc1;" horiz-adv-x="976" d="M-92 0l581 1366h328l33 -1366h-254l2 346h-285l-133 -346h-272zM385 537h211l14 614zM606 1499l152 230h258l-246 -230h-164z" />
<glyph unicode="&#xc2;" horiz-adv-x="976" d="M-92 0l581 1366h328l33 -1366h-254l2 346h-285l-133 -346h-272zM385 537h211l14 614zM401 1497l211 232h222l104 -232h-154l-71 152l-150 -152h-162z" />
<glyph unicode="&#xc3;" horiz-adv-x="976" d="M-92 0l581 1366h328l33 -1366h-254l2 346h-285l-133 -346h-272zM385 537h211l14 614zM408 1503q49 215 206 215q55 0 123 -32q52 -24 70 -29.5t39 -5.5q74 0 86 82h92q-15 -101 -67.5 -159t-127.5 -58q-48 0 -127 36q-73 33 -108 33t-57 -19.5t-37 -62.5h-92z" />
<glyph unicode="&#xc4;" horiz-adv-x="976" d="M-92 0l581 1366h328l33 -1366h-254l2 346h-285l-133 -346h-272zM385 537h211l14 614zM426 1505l45 217h211l-47 -217h-209zM764 1505l45 217h209l-45 -217h-209z" />
<glyph unicode="&#xc5;" horiz-adv-x="976" d="M-92 0l581 1366h328l33 -1366h-254l2 346h-285l-133 -346h-272zM385 537h211l14 614zM514 1636q0 77 54 131t132 54q75 0 129 -55t54 -130q0 -76 -54 -130t-131 -54q-76 0 -130 54t-54 130zM596 1636q0 -43 29.5 -72.5t70.5 -29.5q43 0 74 30t31 72q0 41 -30.5 72 t-70.5 31q-44 0 -74 -30t-30 -73z" />
<glyph unicode="&#xc6;" horiz-adv-x="1447" d="M-119 0l778 1366h865l-47 -215h-412l-72 -338h412l-45 -215h-412l-82 -383h447l-45 -215h-699l74 346h-301l-162 -346h-299zM430 537h252l131 614h-74z" />
<glyph unicode="&#xc7;" horiz-adv-x="997" d="M74 322q0 134 54 401t108 395q61 151 161.5 217t266.5 66q380 0 380 -338q0 -61 -16 -168h-250q19 103 19 147q0 82 -34 121t-106 39q-110 0 -157 -100q-30 -64 -47.5 -127.5t-63.5 -280.5q-37 -175 -49 -250.5t-12 -136.5q0 -67 37 -104t104 -37q83 0 129 60.5t86 222.5 h250q-35 -150 -68.5 -227t-87.5 -134q-114 -123 -311 -123h-23l-57 -82q38 6 49 6q57 0 94 -31.5t37 -78.5q0 -65 -56.5 -104.5t-148.5 -39.5q-67 0 -155 33l26 66q77 -27 111 -27t56 17t22 45q0 26 -19.5 42.5t-50.5 16.5q-18 0 -47 -10l-22 28l88 125q-297 52 -297 351z " />
<glyph unicode="&#xc8;" horiz-adv-x="892" d="M4 0l291 1366h668l-48 -215h-417l-72 -340h418l-45 -215h-420l-80 -381h459l-47 -215h-707zM416 1726h243l109 -233h-158z" />
<glyph unicode="&#xc9;" horiz-adv-x="892" d="M4 0l291 1366h668l-48 -215h-417l-72 -340h418l-45 -215h-420l-80 -381h459l-47 -215h-707zM551 1499l151 230h259l-246 -230h-164z" />
<glyph unicode="&#xca;" horiz-adv-x="892" d="M4 0l291 1366h668l-48 -215h-417l-72 -340h418l-45 -215h-420l-80 -381h459l-47 -215h-707zM395 1497l211 232h221l105 -232h-154l-71 152l-150 -152h-162z" />
<glyph unicode="&#xcb;" horiz-adv-x="892" d="M4 0l291 1366h668l-48 -215h-417l-72 -340h418l-45 -215h-420l-80 -381h459l-47 -215h-707zM385 1505l45 217h211l-47 -217h-209zM723 1505l45 217h209l-45 -217h-209z" />
<glyph unicode="&#xcc;" horiz-adv-x="479" d="M4 0l291 1366h252l-291 -1366h-252zM188 1726h244l109 -233h-158z" />
<glyph unicode="&#xcd;" horiz-adv-x="479" d="M4 0l291 1366h252l-291 -1366h-252zM365 1499l151 230h258l-246 -230h-163z" />
<glyph unicode="&#xce;" horiz-adv-x="479" d="M4 0l291 1366h252l-291 -1366h-252zM182 1497l211 232h221l105 -232h-154l-71 152l-150 -152h-162z" />
<glyph unicode="&#xcf;" horiz-adv-x="479" d="M4 0l291 1366h252l-291 -1366h-252zM193 1507l43 205h200l-45 -205h-198zM512 1507l45 205h199l-43 -205h-201z" />
<glyph unicode="&#xd0;" horiz-adv-x="1093" d="M25 0l141 666h-92l26 120h93l122 580h318q241 0 332 -63q57 -41 88.5 -110.5t31.5 -152.5q0 -105 -31 -289.5t-81 -375.5q-77 -299 -279 -355q-53 -14 -92 -17t-149 -3h-428zM317 195h111q101 0 155 22t89 78q60 95 131 500q23 128 27 155t4 64q0 85 -48.5 120t-164.5 35 h-95l-82 -383h207l-26 -120h-207z" />
<glyph unicode="&#xd1;" horiz-adv-x="1087" d="M4 0l291 1366h278l144 -858l182 858h258l-291 -1366h-276l-150 870l-184 -870h-252zM485 1503q49 215 207 215q55 0 123 -32q52 -24 70 -29.5t39 -5.5q74 0 86 82h92q-15 -101 -67.5 -159t-127.5 -58q-48 0 -127 36q-73 33 -108 33t-57 -19.5t-37 -62.5h-93z" />
<glyph unicode="&#xd2;" horiz-adv-x="1060" d="M70 326q0 93 45.5 320.5t99.5 408.5q34 109 93 189.5t132 115.5q81 41 222 41q397 0 397 -344q0 -109 -33.5 -298t-83.5 -364q-51 -176 -105 -261.5t-143 -127.5q-87 -41 -217 -41q-407 0 -407 361zM324 317q0 -153 145 -153q85 0 129.5 54t87.5 206q49 179 86 368.5 t37 268.5q0 66 -38.5 103.5t-104.5 37.5q-88 0 -141 -66.5t-91 -224.5q-110 -438 -110 -594zM479 1726h244l108 -233h-157z" />
<glyph unicode="&#xd3;" horiz-adv-x="1060" d="M70 326q0 93 45.5 320.5t99.5 408.5q34 109 93 189.5t132 115.5q81 41 222 41q397 0 397 -344q0 -109 -33.5 -298t-83.5 -364q-51 -176 -105 -261.5t-143 -127.5q-87 -41 -217 -41q-407 0 -407 361zM324 317q0 -153 145 -153q85 0 129.5 54t87.5 206q49 179 86 368.5 t37 268.5q0 66 -38.5 103.5t-104.5 37.5q-88 0 -141 -66.5t-91 -224.5q-110 -438 -110 -594zM602 1499l152 230h258l-246 -230h-164z" />
<glyph unicode="&#xd4;" horiz-adv-x="1060" d="M70 326q0 93 45.5 320.5t99.5 408.5q34 109 93 189.5t132 115.5q81 41 222 41q397 0 397 -344q0 -109 -33.5 -298t-83.5 -364q-51 -176 -105 -261.5t-143 -127.5q-87 -41 -217 -41q-407 0 -407 361zM324 317q0 -153 145 -153q85 0 129.5 54t87.5 206q49 179 86 368.5 t37 268.5q0 66 -38.5 103.5t-104.5 37.5q-88 0 -141 -66.5t-91 -224.5q-110 -438 -110 -594zM459 1497l211 232h221l104 -232h-153l-72 152l-149 -152h-162z" />
<glyph unicode="&#xd5;" horiz-adv-x="1060" d="M70 326q0 93 45.5 320.5t99.5 408.5q34 109 93 189.5t132 115.5q81 41 222 41q397 0 397 -344q0 -109 -33.5 -298t-83.5 -364q-51 -176 -105 -261.5t-143 -127.5q-87 -41 -217 -41q-407 0 -407 361zM324 317q0 -153 145 -153q85 0 129.5 54t87.5 206q49 179 86 368.5 t37 268.5q0 66 -38.5 103.5t-104.5 37.5q-88 0 -141 -66.5t-91 -224.5q-110 -438 -110 -594zM465 1503q49 215 207 215q55 0 123 -32q53 -24 70 -29.5t38 -5.5q74 0 86 82h92q-15 -101 -67 -159t-127 -58q-48 0 -127 36q-73 33 -109 33q-35 0 -57 -19.5t-37 -62.5h-92z" />
<glyph unicode="&#xd6;" horiz-adv-x="1060" d="M70 326q0 93 45.5 320.5t99.5 408.5q34 109 93 189.5t132 115.5q81 41 222 41q397 0 397 -344q0 -109 -33.5 -298t-83.5 -364q-51 -176 -105 -261.5t-143 -127.5q-87 -41 -217 -41q-407 0 -407 361zM324 317q0 -153 145 -153q85 0 129.5 54t87.5 206q49 179 86 368.5 t37 268.5q0 66 -38.5 103.5t-104.5 37.5q-88 0 -141 -66.5t-91 -224.5q-110 -438 -110 -594zM463 1505l45 217h211l-47 -217h-209zM801 1505l45 217h209l-45 -217h-209z" />
<glyph unicode="&#xd7;" d="M49 481l311 246l-192 244l139 110l193 -245l311 245l109 -141l-310 -244l195 -247l-139 -111l-197 250l-309 -246z" />
<glyph unicode="&#xd8;" horiz-adv-x="1048" d="M-41 14l125 158q-16 104 -16 160q0 86 48 334t91 381q38 119 86.5 186.5t124.5 107.5q111 60 254 60q220 0 303 -117l106 131l82 -67l-129 -160q23 -85 23 -135q0 -166 -58.5 -436t-124.5 -410q-112 -242 -409 -242q-97 0 -156 20.5t-166 90.5l-98 -125zM309 266 q28 -63 61.5 -87.5t90.5 -24.5q77 0 127.5 45.5t81.5 142.5q21 63 37 131t110 485zM309 406l504 677q-17 69 -56.5 100t-109.5 31q-58 0 -99 -27t-75 -87q-29 -52 -49 -133.5t-72 -352.5q-1 -6 -8.5 -42.5t-16.5 -80t-18 -85.5z" />
<glyph unicode="&#xd9;" horiz-adv-x="1056" d="M82 293q0 121 29 256l174 817h252l-185 -870q-28 -134 -28 -189q0 -67 41.5 -105t113.5 -38q56 0 93 25t65 81q15 30 25 66.5t32 138.5l191 891h252l-201 -946q-27 -132 -49.5 -194t-61.5 -115q-57 -77 -137.5 -111.5t-204.5 -34.5q-401 0 -401 328zM479 1726h244 l108 -233h-157z" />
<glyph unicode="&#xda;" horiz-adv-x="1056" d="M82 293q0 121 29 256l174 817h252l-185 -870q-28 -134 -28 -189q0 -67 41.5 -105t113.5 -38q56 0 93 25t65 81q15 30 25 66.5t32 138.5l191 891h252l-201 -946q-27 -132 -49.5 -194t-61.5 -115q-57 -77 -137.5 -111.5t-204.5 -34.5q-401 0 -401 328zM655 1499l152 230 h258l-246 -230h-164z" />
<glyph unicode="&#xdb;" horiz-adv-x="1056" d="M82 293q0 121 29 256l174 817h252l-185 -870q-28 -134 -28 -189q0 -67 41.5 -105t113.5 -38q56 0 93 25t65 81q15 30 25 66.5t32 138.5l191 891h252l-201 -946q-27 -132 -49.5 -194t-61.5 -115q-57 -77 -137.5 -111.5t-204.5 -34.5q-401 0 -401 328zM477 1497l211 232 h221l105 -232h-154l-72 152l-149 -152h-162z" />
<glyph unicode="&#xdc;" horiz-adv-x="1056" d="M82 293q0 121 29 256l174 817h252l-185 -870q-28 -134 -28 -189q0 -67 41.5 -105t113.5 -38q56 0 93 25t65 81q15 30 25 66.5t32 138.5l191 891h252l-201 -946q-27 -132 -49.5 -194t-61.5 -115q-57 -77 -137.5 -111.5t-204.5 -34.5q-401 0 -401 328zM475 1505l45 217h211 l-47 -217h-209zM813 1505l45 217h209l-45 -217h-209z" />
<glyph unicode="&#xdd;" horiz-adv-x="927" d="M147 1366h275l119 -535l286 535h279l-465 -809l-119 -557h-252l119 557zM563 1499l152 230h258l-246 -230h-164z" />
<glyph unicode="&#xde;" horiz-adv-x="968" d="M4 0l291 1366h252l-41 -192h127q184 0 269 -83.5t85 -263.5q0 -132 -51 -238.5t-137 -152.5q-104 -55 -330 -55q-47 0 -129 6l-84 -387h-252zM379 573q74 -4 90 -4q136 0 190 45q31 28 53.5 89t22.5 120q0 88 -43 122t-155 34h-72z" />
<glyph unicode="&#xdf;" horiz-adv-x="866" d="M-12 0l225 1059q70 330 346 330q141 0 229.5 -80t88.5 -209q0 -78 -21 -153.5t-55 -121.5q-23 -29 -53.5 -42.5t-83.5 -18.5q63 -32 91.5 -83.5t28.5 -131.5q0 -106 -32 -234.5t-76 -197.5q-43 -67 -93 -98t-116 -31q-38 0 -69 9.5t-81 35.5l37 178q43 -25 68 -25 q29 0 47 25t37 90q53 186 53 307q0 94 -98 103l33 155q31 -8 43 -8q39 0 67 49t38.5 105.5t10.5 105.5q0 44 -25.5 71.5t-66.5 27.5q-50 0 -77 -41.5t-50 -153.5l-217 -1022h-229z" />
<glyph unicode="&#xe0;" horiz-adv-x="876" d="M14 233q0 96 41.5 176.5t110.5 120.5q45 26 95.5 42.5t195.5 50.5q76 19 108.5 54t32.5 99q0 47 -30.5 76t-80.5 29q-128 0 -143 -166h-227q15 99 40 154.5t74 97.5q93 84 269 84q155 0 242 -62t87 -172q0 -72 -20 -174l-96 -455q-16 -75 -19.5 -104t-3.5 -84h-225l18 86 q-51 -65 -101 -91t-122 -26q-114 0 -180 71t-66 193zM244 242q0 -50 27.5 -78.5t76.5 -28.5q57 0 97 42.5t57 119.5l45 207q-26 -23 -37 -27l-162 -65q-50 -20 -77 -65.5t-27 -104.5zM307 1425h242l115 -262h-148z" />
<glyph unicode="&#xe1;" horiz-adv-x="876" d="M14 233q0 96 41.5 176.5t110.5 120.5q45 26 95.5 42.5t195.5 50.5q76 19 108.5 54t32.5 99q0 47 -30.5 76t-80.5 29q-128 0 -143 -166h-227q15 99 40 154.5t74 97.5q93 84 269 84q155 0 242 -62t87 -172q0 -72 -20 -174l-96 -455q-16 -75 -19.5 -104t-3.5 -84h-225l18 86 q-51 -65 -101 -91t-122 -26q-114 0 -180 71t-66 193zM244 242q0 -50 27.5 -78.5t76.5 -28.5q57 0 97 42.5t57 119.5l45 207q-26 -23 -37 -27l-162 -65q-50 -20 -77 -65.5t-27 -104.5zM451 1159l153 262h230l-230 -262h-153z" />
<glyph unicode="&#xe2;" horiz-adv-x="876" d="M14 233q0 96 41.5 176.5t110.5 120.5q45 26 95.5 42.5t195.5 50.5q76 19 108.5 54t32.5 99q0 47 -30.5 76t-80.5 29q-128 0 -143 -166h-227q15 99 40 154.5t74 97.5q93 84 269 84q155 0 242 -62t87 -172q0 -72 -20 -174l-96 -455q-16 -75 -19.5 -104t-3.5 -84h-225l18 86 q-51 -65 -101 -91t-122 -26q-114 0 -180 71t-66 193zM244 242q0 -50 27.5 -78.5t76.5 -28.5q57 0 97 42.5t57 119.5l45 207q-26 -23 -37 -27l-162 -65q-50 -20 -77 -65.5t-27 -104.5zM272 1165l240 262h205l133 -262h-158l-90 166l-145 -166h-185z" />
<glyph unicode="&#xe3;" horiz-adv-x="876" d="M14 233q0 96 41.5 176.5t110.5 120.5q45 26 95.5 42.5t195.5 50.5q76 19 108.5 54t32.5 99q0 47 -30.5 76t-80.5 29q-128 0 -143 -166h-227q15 99 40 154.5t74 97.5q93 84 269 84q155 0 242 -62t87 -172q0 -72 -20 -174l-96 -455q-16 -75 -19.5 -104t-3.5 -84h-225l18 86 q-51 -65 -101 -91t-122 -26q-114 0 -180 71t-66 193zM244 242q0 -50 27.5 -78.5t76.5 -28.5q57 0 97 42.5t57 119.5l45 207q-26 -23 -37 -27l-162 -65q-50 -20 -77 -65.5t-27 -104.5zM281 1194q12 61 26.5 93.5t42.5 60.5q54 51 135 51q65 0 154 -41q67 -29 98 -29 q74 0 92 64h91q-15 -97 -66.5 -148t-134.5 -51q-55 0 -131 31q-62 28 -79.5 33.5t-41.5 5.5q-72 0 -96 -70h-90z" />
<glyph unicode="&#xe4;" horiz-adv-x="876" d="M14 233q0 96 41.5 176.5t110.5 120.5q45 26 95.5 42.5t195.5 50.5q76 19 108.5 54t32.5 99q0 47 -30.5 76t-80.5 29q-128 0 -143 -166h-227q15 99 40 154.5t74 97.5q93 84 269 84q155 0 242 -62t87 -172q0 -72 -20 -174l-96 -455q-16 -75 -19.5 -104t-3.5 -84h-225l18 86 q-51 -65 -101 -91t-122 -26q-114 0 -180 71t-66 193zM244 242q0 -50 27.5 -78.5t76.5 -28.5q57 0 97 42.5t57 119.5l45 207q-26 -23 -37 -27l-162 -65q-50 -20 -77 -65.5t-27 -104.5zM295 1186l45 211h213l-43 -211h-215zM670 1186l45 211h215l-45 -211h-215z" />
<glyph unicode="&#xe5;" horiz-adv-x="876" d="M14 233q0 96 41.5 176.5t110.5 120.5q45 26 95.5 42.5t195.5 50.5q76 19 108.5 54t32.5 99q0 47 -30.5 76t-80.5 29q-128 0 -143 -166h-227q15 99 40 154.5t74 97.5q93 84 269 84q155 0 242 -62t87 -172q0 -72 -20 -174l-96 -455q-16 -75 -19.5 -104t-3.5 -84h-225l18 86 q-51 -65 -101 -91t-122 -26q-114 0 -180 71t-66 193zM244 242q0 -50 27.5 -78.5t76.5 -28.5q57 0 97 42.5t57 119.5l45 207q-26 -23 -37 -27l-162 -65q-50 -20 -77 -65.5t-27 -104.5zM393 1333q0 79 56.5 135t136.5 56q77 0 132.5 -56.5t55.5 -134.5t-56 -134t-134 -56 t-134.5 56t-56.5 134zM473 1333q0 -45 32.5 -77.5t76.5 -32.5q47 0 79.5 32t32.5 78q0 45 -32 78t-76 33q-47 0 -80 -32.5t-33 -78.5z" />
<glyph unicode="&#xe6;" horiz-adv-x="1294" d="M8 229q0 83 30 156t83 117q57 50 215 88q115 27 145 36t51 27q52 42 52 129q0 46 -28.5 71.5t-80.5 25.5q-65 0 -96 -35t-41 -121h-221q12 92 37 146.5t75 99.5q94 82 244 82q79 0 133.5 -18.5t100.5 -61.5q61 46 112.5 63t126.5 17q148 0 227.5 -68.5t79.5 -194.5 q0 -47 -8 -101.5t-37 -211.5h-465q-34 -182 -34 -235q0 -99 98 -99q61 0 90.5 38t58.5 157h224q-37 -204 -120 -285.5t-255 -81.5q-101 0 -162.5 24t-114.5 83q-69 -60 -127.5 -83.5t-136.5 -23.5q-124 0 -190 67t-66 193zM242 231q0 -43 26 -67.5t70 -24.5q106 0 147 183 l33 153q-40 -24 -47 -24l-78 -27q-151 -51 -151 -193zM782 641h236q14 101 14 137q0 103 -96 103q-63 0 -96 -51.5t-58 -188.5z" />
<glyph unicode="&#xe7;" horiz-adv-x="806" d="M37 238q0 66 27.5 218.5t66.5 301.5q40 152 124.5 222.5t229.5 70.5q156 0 229.5 -65.5t73.5 -203.5q0 -51 -8 -135h-229q14 101 14 133q0 44 -20.5 68t-57.5 24q-52 0 -85.5 -49.5t-55.5 -158.5q-73 -373 -75 -396q-1 -9 -1 -24q0 -44 23 -70.5t63 -26.5q54 0 83 49.5 t55 184.5h229q-31 -163 -64 -238.5t-90 -115.5q-77 -58 -227 -58h-4l-59 -86q37 6 49 6q57 0 94 -31.5t37 -78.5q0 -65 -56.5 -104.5t-150.5 -39.5q-66 0 -156 33l29 66q77 -27 111 -27t55.5 17t21.5 45q0 26 -19 42.5t-50 16.5q-22 0 -47 -10l-25 28l92 129 q-121 23 -174 84.5t-53 178.5z" />
<glyph unicode="&#xe8;" horiz-adv-x="870" d="M43 262q0 93 36 271.5t79 300.5q77 217 346 217q325 0 325 -271q0 -99 -41 -305h-481q-25 -119 -31 -155t-6 -74q0 -49 28.5 -77t78.5 -28q63 0 97.5 44.5t53.5 150.5h230q-40 -203 -125.5 -285t-257.5 -82q-181 0 -269 88q-63 63 -63 205zM264 1425h242l115 -262h-148z M342 639h248q16 101 16 141q0 47 -27.5 74t-76.5 27q-68 0 -98 -45t-62 -197z" />
<glyph unicode="&#xe9;" horiz-adv-x="870" d="M43 262q0 93 36 271.5t79 300.5q77 217 346 217q325 0 325 -271q0 -99 -41 -305h-481q-25 -119 -31 -155t-6 -74q0 -49 28.5 -77t78.5 -28q63 0 97.5 44.5t53.5 150.5h230q-40 -203 -125.5 -285t-257.5 -82q-181 0 -269 88q-63 63 -63 205zM342 639h248q16 101 16 141 q0 47 -27.5 74t-76.5 27q-68 0 -98 -45t-62 -197zM455 1159l153 262h230l-230 -262h-153z" />
<glyph unicode="&#xea;" horiz-adv-x="870" d="M43 262q0 93 36 271.5t79 300.5q77 217 346 217q325 0 325 -271q0 -99 -41 -305h-481q-25 -119 -31 -155t-6 -74q0 -49 28.5 -77t78.5 -28q63 0 97.5 44.5t53.5 150.5h230q-40 -203 -125.5 -285t-257.5 -82q-181 0 -269 88q-63 63 -63 205zM276 1165l240 262h205 l133 -262h-158l-90 166l-145 -166h-185zM342 639h248q16 101 16 141q0 47 -27.5 74t-76.5 27q-68 0 -98 -45t-62 -197z" />
<glyph unicode="&#xeb;" horiz-adv-x="870" d="M43 262q0 93 36 271.5t79 300.5q77 217 346 217q325 0 325 -271q0 -99 -41 -305h-481q-25 -119 -31 -155t-6 -74q0 -49 28.5 -77t78.5 -28q63 0 97.5 44.5t53.5 150.5h230q-40 -203 -125.5 -285t-257.5 -82q-181 0 -269 88q-63 63 -63 205zM291 1186l45 211h213l-43 -211 h-215zM342 639h248q16 101 16 141q0 47 -27.5 74t-76.5 27q-68 0 -98 -45t-62 -197zM666 1186l45 211h215l-45 -211h-215z" />
<glyph unicode="&#xec;" horiz-adv-x="425" d="M-12 0l217 1020h231l-217 -1020h-231zM76 1425h241l115 -262h-147z" />
<glyph unicode="&#xed;" horiz-adv-x="425" d="M-12 0l217 1020h231l-217 -1020h-231zM279 1159l153 262h230l-230 -262h-153z" />
<glyph unicode="&#xee;" horiz-adv-x="425" d="M-12 0l217 1020h231l-217 -1020h-231zM59 1165l240 262h205l133 -262h-158l-90 166l-145 -166h-185z" />
<glyph unicode="&#xef;" horiz-adv-x="425" d="M-12 0l217 1020h231l-217 -1020h-231zM117 1186l45 211h198l-43 -211h-200zM410 1186l45 211h200l-45 -211h-200z" />
<glyph unicode="&#xf0;" horiz-adv-x="878" d="M45 231q0 152 47.5 370.5t100.5 307.5q83 142 268 142q50 0 88 -9.5t84 -35.5q-12 65 -51 157l-19 43l-137 -73l-49 94l143 76l-8 22q-4 10 -27 55l115 66l47 -76l146 78l49 -94l-142 -74q80 -143 113 -246t33 -213q0 -92 -30.5 -257.5t-78.5 -334.5 q-40 -139 -122.5 -200.5t-229.5 -61.5q-167 0 -253.5 67t-86.5 197zM276 246q0 -49 27.5 -77t73.5 -28q61 0 96 41t55 137q68 326 93 506q-36 31 -60 42.5t-57 11.5q-55 0 -86 -33.5t-53 -116.5q-26 -104 -57.5 -274.5t-31.5 -208.5z" />
<glyph unicode="&#xf1;" horiz-adv-x="872" d="M-12 0l217 1020h219l-21 -96q53 66 109.5 96.5t126.5 30.5q94 0 146.5 -52.5t52.5 -144.5q0 -70 -23 -174l-145 -680h-232l150 707q14 68 14 94q0 34 -22.5 53.5t-59.5 19.5q-52 0 -93 -51t-60 -139l-148 -684h-231zM299 1194q12 61 27 93.5t43 60.5q54 51 135 51 q64 0 153 -41q67 -29 99 -29q74 0 92 64h90q-15 -97 -66.5 -148t-134.5 -51q-55 0 -131 31q-62 28 -79.5 33.5t-41.5 5.5q-72 0 -96 -70h-90z" />
<glyph unicode="&#xf2;" horiz-adv-x="878" d="M41 258q7 161 55.5 366.5t96.5 284.5q89 142 311 142q193 0 268 -84q26 -29 44 -84t18 -107q0 -143 -51 -361t-105 -304q-46 -75 -116.5 -108.5t-182.5 -33.5q-173 0 -259 73.5t-79 215.5zM256 1425h242l114 -262h-147zM272 262q-4 -57 23 -88t80 -31q58 0 93 42.5 t54 136.5l37 180q45 178 45 276q0 43 -28.5 71t-73.5 28t-75 -24t-50 -77q-17 -46 -59.5 -253t-45.5 -261z" />
<glyph unicode="&#xf3;" horiz-adv-x="878" d="M41 258q7 161 55.5 366.5t96.5 284.5q89 142 311 142q193 0 268 -84q26 -29 44 -84t18 -107q0 -143 -51 -361t-105 -304q-46 -75 -116.5 -108.5t-182.5 -33.5q-173 0 -259 73.5t-79 215.5zM272 262q-4 -57 23 -88t80 -31q58 0 93 42.5t54 136.5l37 180q45 178 45 276 q0 43 -28.5 71t-73.5 28t-75 -24t-50 -77q-17 -46 -59.5 -253t-45.5 -261zM440 1159l154 262h229l-229 -262h-154z" />
<glyph unicode="&#xf4;" horiz-adv-x="878" d="M41 258q7 161 55.5 366.5t96.5 284.5q89 142 311 142q193 0 268 -84q26 -29 44 -84t18 -107q0 -143 -51 -361t-105 -304q-46 -75 -116.5 -108.5t-182.5 -33.5q-173 0 -259 73.5t-79 215.5zM272 262q-4 -57 23 -88t80 -31q58 0 93 42.5t54 136.5l37 180q45 178 45 276 q0 43 -28.5 71t-73.5 28t-75 -24t-50 -77q-17 -46 -59.5 -253t-45.5 -261zM283 1165l239 262h205l133 -262h-158l-90 166l-145 -166h-184z" />
<glyph unicode="&#xf5;" horiz-adv-x="878" d="M41 258q7 161 55.5 366.5t96.5 284.5q89 142 311 142q193 0 268 -84q26 -29 44 -84t18 -107q0 -143 -51 -361t-105 -304q-46 -75 -116.5 -108.5t-182.5 -33.5q-173 0 -259 73.5t-79 215.5zM272 262q-4 -57 23 -88t80 -31q58 0 93 42.5t54 136.5l37 180q45 178 45 276 q0 43 -28.5 71t-73.5 28t-75 -24t-50 -77q-17 -46 -59.5 -253t-45.5 -261zM283 1194q12 61 26.5 93.5t42.5 60.5q54 51 135 51q65 0 154 -41q67 -29 98 -29q74 0 92 64h91q-15 -97 -66.5 -148t-134.5 -51q-55 0 -131 31q-62 28 -79.5 33.5t-41.5 5.5q-72 0 -96 -70h-90z" />
<glyph unicode="&#xf6;" horiz-adv-x="878" d="M41 258q7 161 55.5 366.5t96.5 284.5q89 142 311 142q193 0 268 -84q26 -29 44 -84t18 -107q0 -143 -51 -361t-105 -304q-46 -75 -116.5 -108.5t-182.5 -33.5q-173 0 -259 73.5t-79 215.5zM260 1186l45 211h213l-43 -211h-215zM272 262q-4 -57 23 -88t80 -31 q58 0 93 42.5t54 136.5l37 180q45 178 45 276q0 43 -28.5 71t-73.5 28t-75 -24t-50 -77q-17 -46 -59.5 -253t-45.5 -261zM635 1186l45 211h215l-45 -211h-215z" />
<glyph unicode="&#xf7;" d="M111 631l34 164h721l-35 -164h-720zM293 344q0 51 36.5 87t88.5 36q50 0 85.5 -36t35.5 -87t-36 -87t-87 -36t-87 36t-36 87zM440 1081q0 51 36.5 87t88.5 36q50 0 85.5 -36t35.5 -87t-36 -87t-87 -36t-87 36t-36 87z" />
<glyph unicode="&#xf8;" horiz-adv-x="878" d="M-53 -2l110 139q-16 60 -16 113q0 176 82 469q54 188 138.5 260t250.5 72q79 0 132 -16t104 -54l86 104l73 -63l-98 -121q17 -31 23 -53t6 -57q0 -128 -45 -335t-93 -302q-51 -99 -127 -142t-200 -43q-78 0 -131.5 16t-128.5 62l-90 -108zM264 326l346 473q-8 44 -32 65 t-70 21q-82 0 -119 -78q-20 -41 -30 -76.5t-40 -166.5q-11 -51 -18 -81zM270 217q15 -84 105 -84q52 0 84 32t57 109q10 33 92 404z" />
<glyph unicode="&#xf9;" horiz-adv-x="874" d="M33 168q0 63 16 135l154 717h231l-143 -678q-19 -93 -19 -119q0 -35 22.5 -56.5t57.5 -21.5q65 0 103.5 60.5t70.5 212.5l127 602h234l-217 -1020h-215l22 100q-92 -131 -250 -131q-89 0 -141.5 54t-52.5 145zM299 1425h242l114 -262h-147z" />
<glyph unicode="&#xfa;" horiz-adv-x="874" d="M33 168q0 63 16 135l154 717h231l-143 -678q-19 -93 -19 -119q0 -35 22.5 -56.5t57.5 -21.5q65 0 103.5 60.5t70.5 212.5l127 602h234l-217 -1020h-215l22 100q-92 -131 -250 -131q-89 0 -141.5 54t-52.5 145zM489 1159l154 262h229l-229 -262h-154z" />
<glyph unicode="&#xfb;" horiz-adv-x="874" d="M33 168q0 63 16 135l154 717h231l-143 -678q-19 -93 -19 -119q0 -35 22.5 -56.5t57.5 -21.5q65 0 103.5 60.5t70.5 212.5l127 602h234l-217 -1020h-215l22 100q-92 -131 -250 -131q-89 0 -141.5 54t-52.5 145zM299 1165l240 262h204l134 -262h-158l-90 166l-146 -166 h-184z" />
<glyph unicode="&#xfc;" horiz-adv-x="874" d="M33 168q0 63 16 135l154 717h231l-143 -678q-19 -93 -19 -119q0 -35 22.5 -56.5t57.5 -21.5q65 0 103.5 60.5t70.5 212.5l127 602h234l-217 -1020h-215l22 100q-92 -131 -250 -131q-89 0 -141.5 54t-52.5 145zM289 1186l45 211h213l-43 -211h-215zM664 1186l45 211h215 l-45 -211h-215z" />
<glyph unicode="&#xfd;" horiz-adv-x="817" d="M-2 -336l37 170q14 -2 41 -2q59 0 86 43.5t26 136.5l-2 99l-69 909h241l11 -778l284 778h252l-512 -1159q-42 -92 -65 -123q-66 -84 -201 -84q-44 0 -129 10zM446 1159l154 262h229l-229 -262h-154z" />
<glyph unicode="&#xfe;" horiz-adv-x="868" d="M-84 -342l363 1708h210l-94 -438q63 69 114 96t116 27q97 0 151.5 -60t54.5 -164q0 -135 -39.5 -335.5t-89.5 -317.5q-44 -105 -105 -155t-144 -50q-151 0 -205 160l-101 -471h-231zM295 311q0 -125 90 -125q38 0 65.5 30.5t53.5 102.5q32 91 62 236.5t30 212.5 q0 46 -23 74t-61 28q-95 0 -139 -161q-27 -97 -52.5 -227t-25.5 -171z" />
<glyph unicode="&#xff;" horiz-adv-x="817" d="M-2 -336l37 170q14 -2 41 -2q59 0 86 43.5t26 136.5l-2 99l-69 909h241l11 -778l284 778h252l-512 -1159q-42 -92 -65 -123q-66 -84 -201 -84q-44 0 -129 10zM264 1186l45 211h213l-43 -211h-215zM639 1186l45 211h215l-45 -211h-215z" />
<glyph unicode="&#x152;" horiz-adv-x="1495" d="M68 276q0 210 102 637q65 267 168.5 372.5t302.5 105.5q108 0 161 -28.5t81 -100.5l22 104h662l-47 -215h-418l-72 -338h418l-45 -215h-418l-80 -383h453l-45 -215h-660l25 111q-57 -90 -110 -118t-167 -28q-333 0 -333 311zM319 332q-5 -80 35 -123t119 -43 q72 0 116.5 43.5t76.5 144.5q44 139 91.5 376t47.5 323q0 69 -40.5 107t-115.5 38q-66 0 -109.5 -43.5t-74.5 -140.5q-50 -156 -95 -366.5t-51 -315.5z" />
<glyph unicode="&#x153;" horiz-adv-x="1372" d="M37 231q0 80 33 255t71 298q43 140 129 203.5t232 63.5q97 0 153 -22t103 -79q54 54 113.5 77.5t142.5 23.5q152 0 235.5 -69.5t83.5 -195.5q0 -60 -9 -122t-36 -191h-483q-28 -139 -32.5 -168.5t-4.5 -64.5q0 -47 28 -74t78 -27q61 0 95.5 43t60.5 152h230 q-23 -112 -48.5 -171t-68.5 -102q-92 -92 -266 -92q-83 0 -140 20.5t-108 67.5q-63 -50 -120.5 -69t-143.5 -19q-152 0 -240 70t-88 192zM276 252q0 -109 103 -109q65 0 97.5 44t58.5 167q6 36 55 242q24 114 24 164q0 112 -104 112q-59 0 -88.5 -32t-52.5 -121 q-31 -115 -62 -270.5t-31 -196.5zM840 639h252q18 98 18 133q0 50 -28.5 78.5t-77.5 28.5q-68 0 -102 -50.5t-62 -189.5z" />
<glyph unicode="&#x178;" horiz-adv-x="927" d="M147 1366h275l119 -535l286 535h279l-465 -809l-119 -557h-252l119 557zM403 1505l46 217h210l-47 -217h-209zM741 1505l45 217h209l-45 -217h-209z" />
<glyph unicode="&#x2c6;" horiz-adv-x="1024" d="M358 1165l240 262h205l133 -262h-158l-90 166l-145 -166h-185z" />
<glyph unicode="&#x2dc;" horiz-adv-x="1024" d="M334 1194q12 61 26.5 93.5t42.5 60.5q54 51 136 51q64 0 153 -41q67 -29 99 -29q74 0 92 64h90q-15 -97 -66.5 -148t-134.5 -51q-55 0 -131 31q-62 28 -79.5 33.5t-41.5 5.5q-72 0 -96 -70h-90z" />
<glyph unicode="&#x2000;" horiz-adv-x="910" />
<glyph unicode="&#x2001;" horiz-adv-x="1821" />
<glyph unicode="&#x2002;" horiz-adv-x="910" />
<glyph unicode="&#x2003;" horiz-adv-x="1821" />
<glyph unicode="&#x2004;" horiz-adv-x="607" />
<glyph unicode="&#x2005;" horiz-adv-x="455" />
<glyph unicode="&#x2006;" horiz-adv-x="303" />
<glyph unicode="&#x2007;" horiz-adv-x="303" />
<glyph unicode="&#x2008;" horiz-adv-x="227" />
<glyph unicode="&#x2009;" horiz-adv-x="364" />
<glyph unicode="&#x200a;" horiz-adv-x="101" />
<glyph unicode="&#x2010;" horiz-adv-x="382" d="M-14 442l43 203h383l-43 -203h-383z" />
<glyph unicode="&#x2011;" horiz-adv-x="382" d="M-14 442l43 203h383l-43 -203h-383z" />
<glyph unicode="&#x2012;" horiz-adv-x="382" d="M-14 442l43 203h383l-43 -203h-383z" />
<glyph unicode="&#x2013;" horiz-adv-x="876" d="M82 442l43 203h684l-45 -203h-682z" />
<glyph unicode="&#x2014;" horiz-adv-x="1167" d="M-14 442l43 203h1167l-43 -203h-1167z" />
<glyph unicode="&#x2018;" horiz-adv-x="438" d="M176 891l45 217q29 146 100 212.5t205 72.5l-16 -76q-76 -7 -117.5 -51.5t-56.5 -135.5h135l-51 -239h-244z" />
<glyph unicode="&#x2019;" horiz-adv-x="438" d="M172 864l16 76q76 7 117.5 51.5t56.5 134.5h-135l52 240h243l-45 -217q-29 -146 -100 -212.5t-205 -72.5z" />
<glyph unicode="&#x201a;" horiz-adv-x="438" d="M-68 -262l17 76q76 7 117.5 51.5t56.5 134.5h-135l51 240h244l-45 -217q-29 -145 -100.5 -212t-205.5 -73z" />
<glyph unicode="&#x201c;" horiz-adv-x="804" d="M176 891l45 217q29 146 100 212.5t205 72.5l-16 -76q-76 -7 -117.5 -51.5t-56.5 -135.5h135l-51 -239h-244zM543 891l47 217q31 144 101 211.5t202 73.5l-14 -76q-77 -8 -119 -52.5t-55 -134.5h133l-52 -239h-243z" />
<glyph unicode="&#x201d;" horiz-adv-x="804" d="M172 864l16 76q77 8 118 51.5t56 134.5h-135l52 240h243l-45 -217q-29 -146 -100 -212.5t-205 -72.5zM539 864l16 76q77 8 119 52t55 134h-133l51 240h242l-45 -217q-29 -146 -100 -212.5t-205 -72.5z" />
<glyph unicode="&#x201e;" horiz-adv-x="804" d="M-68 -262l17 76q76 7 117.5 51.5t56.5 134.5h-135l51 240h244l-45 -217q-29 -145 -100.5 -212t-205.5 -73zM299 -262l16 76q77 8 119 52.5t55 133.5h-133l52 240h241l-45 -217q-29 -146 -100 -212.5t-205 -72.5z" />
<glyph unicode="&#x2022;" horiz-adv-x="1366" d="M401 692q0 120 83.5 202.5t203.5 82.5q115 0 198 -84t83 -201t-83 -199.5t-200 -82.5q-118 0 -201.5 82.5t-83.5 199.5z" />
<glyph unicode="&#x2026;" horiz-adv-x="1312" d="M-12 0l51 238h244l-52 -238h-243zM426 0l49 238h244l-51 -238h-242zM862 0l51 238h244l-51 -238h-244z" />
<glyph unicode="&#x202f;" horiz-adv-x="364" />
<glyph unicode="&#x2039;" horiz-adv-x="444" d="M55 469l33 160l344 245l-43 -202l-199 -146l134 -159l-39 -179z" />
<glyph unicode="&#x203a;" horiz-adv-x="444" d="M20 188l43 203l197 146l-131 159l37 178l231 -280l-35 -160z" />
<glyph unicode="&#x205f;" horiz-adv-x="455" />
<glyph unicode="&#x20ac;" horiz-adv-x="1116" d="M51 530l60 109h88q6 38 16 86h-123l62 109h86q36 166 77 272t101.5 173.5t138.5 94.5t191 27q380 0 380 -338q0 -53 -14 -168h-250q17 102 17 143q0 86 -34 125t-106 39q-94 0 -142.5 -75.5t-94.5 -292.5h272l-61 -109h-234l-18 -86h203l-62 -109h-164q-26 -140 -26 -223 q0 -67 37 -104t104 -37q83 0 128.5 60t86.5 223h248q-33 -149 -66 -225.5t-88 -135.5q-114 -123 -315 -123q-186 0 -287.5 93t-101.5 264q0 94 20 208h-129z" />
<glyph unicode="&#x2122;" horiz-adv-x="1277" d="M152 1227l30 139h492l-29 -139h-162l-135 -639h-160l138 639h-174zM569 588l168 778h224l6 -459l196 459h234l-166 -778h-156l113 524l-232 -524h-106l-12 532l-115 -532h-154z" />
<glyph unicode="&#xe000;" horiz-adv-x="1024" d="M0 0v1024h1024v-1024h-1024z" />
</font>
</defs>
</svg>
